PathFileType	4	(X/Y/Z)	C:/Users/beibeiliu/ov580/test_trc\sequence.12_training_dense_right.trc
DataRate	CameraRate	NumFrames	NumMarkers	Units	OrigDataRate	OrigDataStartFrame	OrigNumFrames
120	120	22	19	mm	120	41	324
Frame#	Time	ThumbCMC			ThumbMCP			ThumbIP			ThumbTip			IndexMCP			IndexPIP			IndexTip			MiddleMCP			MiddlePIP			MiddleTip			RingMCP			RingPIP			RingTip			PinkyMCP			PinkyPIP			PinkyTip			BackHand1			BackHand2			BackHand3	
		X0	Y0	Z0	X1	Y1	Z1	X2	Y2	Z2	X3	Y3	Z3	X4	Y4	Z4	X5	Y5	Z5	X6	Y6	Z6	X7	Y7	Z7	X8	Y8	Z8	X9	Y9	Z9	X10	Y10	Z10	X11	Y11	Z11	X12	Y12	Z12	X13	Y13	Z13	X14	Y14	Z14	X15	Y15	Z15	X16	Y16	Z16	X17	Y17	Z17	X18	Y18	Z18	
40	0.333333	216.977	-30.8791	2.70438	216.423	-57.7005	-0.788684	208.762	-76.8392	-8.69995	202.185	-92.316	-15.5049	231.957	-37.0884	-57.5652	232.776	-46.4656	-78.8599	230.258	-57.6139	-101.738	262.925	-27.6557	-61.4344	267.1	-34.3908	-82.7769	277.433	-41.7545	-107.718	282.958	-27.1268	-47.358	290.904	-34.0415	-69.0595	300.933	-40.1454	-84.9934	299.914	-26.8991	-28.7455	313.789	-33.6686	-39.0018	326.324	-36.7813	-50.2207	264.281	-8.25002	-15.8367	258.998	6.66533	4.62937	239.538	-6.46839	-11.7336	
41	0.341667	223.273	-32.6766	3.6418	218.465	-59.4575	2.43181	214.592	-80.3952	-8.73954	204.662	-98.0681	-13.8217	237.194	-43.3468	-57.1625	238.442	-54.4681	-78.4865	235.912	-66.0761	-95.8607	267.935	-35.5444	-63.1097	278.171	-42.7096	-82.0231	288.89	-52.9519	-104.516	290.152	-34.3517	-48.2968	296.122	-41.2434	-64.5344	309.906	-50.8824	-83.3085	303.896	-32.9928	-23.9801	318.364	-43.0532	-38.2737	331.221	-44.944	-44.1274	270.611	-10.4595	-13.5012	264.887	-0.502582	3.67975	241.237	-10.4397	-11.9455	
42	0.35	228.934	-35.6454	3.23477	224.337	-62.1999	3.8791	215.957	-84.2402	-5.51885	206.271	-101.381	-10.6318	247.143	-50.9103	-58.5844	246.781	-61.4059	-74.8268	245.074	-74.8575	-92.8737	277.021	-43.0616	-60.0214	284.266	-50.7632	-76.717	293.412	-63.1335	-99.2489	291.704	-42.855	-44.9892	303.732	-51.1738	-62.5555	310.465	-60.0173	-76.9819	310	-40.3202	-20.8412	321.834	-48.2037	-29.4022	336.456	-53.297	-40.918	275.666	-15.8335	-12.4939	271.202	-3.73314	3.82834	248.109	-16.1965	-14.4046	
43	0.358333	230.207	-37.8176	5.14409	228.852	-64.3554	5.23971	220.454	-84.1745	-1.08888	212.584	-100.294	-5.47492	253.385	-53.8491	-51.9094	249.109	-69.167	-75.7942	249.144	-81.5189	-89.6536	279.236	-49.5848	-52.636	286.025	-60.4186	-76.0238	296.007	-72.5484	-93.8935	297.097	-47.7446	-40.4141	308.81	-60.9472	-59.9702	319.861	-69.9739	-70.8116	315.988	-47.0237	-18.737	324.954	-57.6123	-27.7135	339.829	-62.8549	-35.4927	280.261	-20.4307	-10.4807	275.509	-6.0721	4.41483	255.955	-16.8758	-9.36683	
44	0.366667	239.82	-40.5928	4.84446	232.901	-64.7769	7.26898	224.151	-84.8488	1.70792	214.66	-102.497	-2.75797	256.905	-60.2515	-54.286	255.132	-73.3541	-69.7505	259.595	-89.6804	-87.2383	284.88	-56.8492	-52.9609	295.827	-68.8448	-71.9841	303.607	-83.8133	-90.2458	304.97	-56.6682	-39.6209	314.325	-69.3995	-56.2534	324.413	-80.9145	-66.1575	316.82	-55.0828	-16.9823	331.933	-66.1744	-22.4177	342.355	-73.6361	-32.934	288.454	-25.644	-12.7286	281.153	-8.81876	9.47557	259.469	-19.7729	-9.01559	
45	0.375	244.55	-40.3649	5.51506	234.907	-67.0204	6.51038	223.364	-85.2075	1.37375	213.005	-102.194	-2.04289	265.314	-63.3126	-48.2715	260.169	-80.2756	-66.4528	261.458	-98.2358	-83.9058	289.544	-63.052	-49.9985	296.934	-76.5583	-67.1233	309.23	-95.5445	-83.8449	306.467	-62.31	-33.533	318.732	-78.7799	-50.7351	327.577	-91.2169	-62.1497	325.516	-61.7938	-12.3716	331.501	-73.4149	-18.2611	349.521	-81.9077	-23.9274	291.926	-30.2563	-9.23602	290.826	-9.93682	9.40596	264.839	-23.8762	-12.366	
46	0.383333	247.465	-39.9869	4.61244	239.792	-64.4469	6.87443	225.119	-84.8484	1.28758	217.571	-96.305	0.117846	267.125	-68.6714	-47.4655	268.29	-85.8699	-63.9662	267.731	-105.728	-80.7082	296.767	-70.7174	-45.857	303.085	-87.9182	-63.9585	312.554	-107.151	-77.2985	311.65	-70.3389	-30.6576	321.861	-89.1347	-45.5718	329.733	-104.046	-56.1593	331.236	-70.7612	-7.88918	340.259	-86.4571	-12.3415	347.649	-96.0563	-21.0974	304.992	-38.5786	-8.3896	300.47	-17.3368	6.11975	277.46	-26.1225	-11.2056	
47	0.391667	258.711	-36.3048	4.90201	241.334	-61.4919	6.25178	227.719	-77.3952	2.19521	219.218	-93.4797	-1.91738	272.556	-71.6337	-45.6781	274.266	-91.3601	-62.7592	266.874	-106.765	-76.0982	305.273	-79.9065	-43.4156	308.853	-99.671	-60.7319	313.673	-119.286	-74.8075	318.042	-78.9701	-26.2463	328.301	-100.48	-39.1783	331.259	-114.663	-48.5603	332.366	-79.8104	-4.384	337.401	-95.2527	-10.4103	348.141	-106.367	-16.5223	312.899	-40.8266	-5.96489	306.917	-19.1197	8.17151	285.509	-26.5177	-9.68458	
48	0.4	264.435	-35.7408	2.54473	246.447	-56.1155	5.95163	231.101	-74.081	0.532303	220.063	-83.6547	-0.357408	280.743	-78.8305	-49.2293	273.961	-91.032	-60.3453	272.668	-109.718	-72.6718	310.053	-87.2906	-40.8788	310.399	-105.563	-55.7367	314.825	-127.336	-68.8565	321.247	-87.7395	-25.6603	327.479	-106.035	-33.2255	334.45	-128.189	-43.898	334.487	-86.3207	0.0959114	342.29	-103.031	-1.73042	347.598	-116.925	-10.4397	319.802	-46.3556	-3.08508	319.472	-26.5852	7.20559	295.701	-30.4539	-11.5046	
49	0.408333	275.184	-37.0552	1.00849	252.315	-57.5258	2.03466	236.18	-66.5772	0.595977	221.797	-79.3029	-3.38963	286.615	-79.7289	-44.8151	278.723	-99.0131	-61.2421	272.91	-115.225	-74.0387	309.992	-88.8462	-38.2439	315.923	-115.093	-51.7876	315.605	-133.38	-62.3762	327.247	-96.2492	-20.8135	326.94	-113.536	-31.4473	332.226	-134.958	-40.0081	334.966	-92.8123	0.830726	341.056	-111.648	2.21608	346.364	-124.738	-5.33204	327.03	-53.8868	-3.82104	325.078	-32.5521	8.16013	306.335	-33.4197	-11.7198	
50	0.416667	279.374	-37.422	-0.751556	256.791	-51.7222	3.38399	241.611	-62.418	-0.118243	223.778	-72.0945	-5.60011	288.702	-81.5955	-46.6161	280.267	-97.952	-59.6355	273.864	-113.408	-70.8328	313.521	-98.4553	-39.2481	312.12	-116.728	-48.6893	316.121	-141.479	-56.2737	329.144	-102.335	-17.9597	327.864	-120.567	-26.4984	330.187	-142.686	-34.4772	336.571	-101.692	3.75437	337.874	-119.275	0.148548	344.727	-135.201	2.20084	330.479	-61.0025	-5.53184	334.209	-38.3649	7.16394	314.875	-38.2628	-9.24031	
51	0.425	287.352	-34.0848	1.16903	264.653	-52.3624	1.43188	248.116	-60.1781	-0.680848	229.368	-66.0505	-6.94235	295.094	-83.719	-42.2217	284.8	-99.5739	-53.946	272.861	-113.395	-69.4366	315.559	-99.9847	-32.9996	311.743	-121.209	-44.5564	307.812	-146.482	-56.4727	329.846	-107.613	-13.397	324.163	-129.249	-26.1513	325.473	-148.715	-30.684	336.946	-109.319	6.28729	337.168	-123.875	8.45462	340.892	-145.154	2.92544	336.306	-67.0131	-2.79662	343.815	-45.3101	12.5333	321.798	-41.807	-10.5761	
52	0.433333	295.278	-36.5308	0.61531	269.464	-48.1683	3.3388	252.147	-58.2522	-1.13801	234.65	-57.4188	-5.75424	295.729	-89.4737	-42.0633	282.825	-101.215	-55.5489	274.519	-119.376	-67.9857	316.826	-108.044	-31.6655	308.183	-125.299	-42.2891	305.192	-151.048	-49.5661	326.358	-114.383	-14.0903	321.468	-133.237	-20.6727	319.333	-153.598	-27.5197	335.907	-113.297	8.6724	333.369	-131.151	7.54308	334.604	-148.832	4.69182	342.238	-73.1489	1.72494	346.541	-47.8256	14.6631	328.663	-48.888	-6.61918	
53	0.441667	302.81	-38.2346	2.25489	275.244	-44.7267	3.43175	257.548	-51.1962	0.0625775	236.413	-53.5775	-7.82265	298.986	-89.1584	-38.4725	287.455	-102.807	-49.8818	275.555	-117.178	-62.295	314.11	-109.054	-29.788	306.083	-133.159	-40.171	300.294	-153.05	-46.359	325.292	-121.29	-10.1418	318.437	-137.609	-16.3769	309.44	-156	-27.4065	334.731	-118.58	13.627	330.51	-135.345	13.7223	327.867	-152.069	5.54656	345.225	-77.676	5.27596	352.044	-56.6274	16.0089	333.466	-52.5812	-7.88832	
54	0.45	309.254	-42.9571	5.26535	282.545	-47.1794	6.32443	259.658	-51.1612	-1.10117	243.891	-49.54	-4.37748	297.484	-94.6054	-39.3083	282.707	-105.281	-52.5913	272.422	-115.902	-62.4304	311.365	-115.01	-28.4563	300.08	-135.792	-39.0189	290.832	-151.708	-46.9546	319.094	-124.045	-10.1299	313.13	-142.186	-13.9745	303.619	-157.025	-22.7697	329.385	-127.012	13.3085	322.53	-142.823	11.7538	319.487	-162.791	7.63642	341.649	-85.5604	4.90273	354.786	-65.5155	19.5277	335.943	-60.7784	-7.53174	
55	0.458333	313.303	-46.649	6.52372	284.221	-49.2115	4.8944	264.719	-47.7453	1.08979	244.35	-49.3583	-5.29637	296.636	-93.0278	-37.2585	282.755	-105.758	-48.7868	270.626	-114.714	-60.1549	309.56	-116.997	-25.6512	297.12	-134.915	-36.4073	283.922	-156.771	-45.1034	318.345	-126.163	-4.69907	304.074	-143.465	-17.6811	297.437	-161.674	-21.0497	325.452	-127.591	15.0559	317.855	-146.78	14.275	311.886	-161.337	5.43009	342.815	-92.6126	7.3852	355.381	-72.0389	22.3488	336.949	-63.9648	-5.38069	
56	0.466667	316.911	-48.1049	7.95779	287.087	-46.7014	7.27057	267.4	-47.8169	0.700643	249.012	-44.525	-4.73453	297.371	-95.3207	-34.5641	283.034	-101.044	-46.1228	267.516	-112.302	-60.5396	308.348	-117.464	-23.1011	296.08	-134.95	-32.1325	279.898	-153.221	-42.6985	313.793	-125.212	-4.80595	302.9	-146.159	-11.9336	291.695	-160.707	-17.6628	320.275	-129.73	15.2917	312.976	-147.318	16.1411	304.134	-164.219	11.8513	342.115	-95.8415	13.5444	356.392	-78.3678	24.3423	340.078	-70.759	-0.077705	
57	0.475	321.188	-47.4447	11.3609	290.123	-44.5647	7.03634	268.456	-42.1005	0.0250567	255.369	-41.5268	-2.42524	298.829	-90.6883	-32.3451	282.781	-100.94	-45.0839	265.549	-110.297	-57.3984	306.904	-118.872	-19.4195	291.726	-135.469	-33.3218	276.534	-151.898	-39.6391	312.033	-127.639	0.300426	299.436	-143.929	-9.68479	284.826	-157.403	-19.9094	316.928	-134.49	20.5501	306.208	-145.451	15.0786	295.933	-165.378	10.8813	340.867	-96.4089	13.9062	355.171	-85.2133	26.7476	342.364	-74.1172	3.5837	
58	0.483333	324.312	-50.2566	12.8613	297.455	-41.416	11.8613	277.956	-36.2578	3.80557	258.422	-37.1081	-1.60954	299.456	-90.6418	-28.7946	281.091	-94.9955	-45.1323	265.077	-101.916	-55.6401	305.882	-116.091	-17.1056	288.274	-135.637	-29.9085	268.953	-147.719	-42.1103	308.216	-125.266	-1.41202	293.163	-144.888	-6.60463	280.092	-154.848	-15.4691	312.857	-133.292	24.1448	300.66	-146.815	20.8612	290.89	-163.163	17.2567	339.671	-100.721	20.3725	358.199	-87.0659	33.4451	345.518	-75.4926	7.52562	
59	0.491667	328.327	-51.1333	16.8291	301.606	-37.3574	12.7111	279.664	-39.083	6.13367	263.925	-32.2097	1.57985	299.662	-85.1934	-28.574	282.077	-92.5814	-40.6465	264.215	-100.451	-52.7346	301.12	-116.236	-17.6655	284.673	-130.506	-29.6002	266.91	-141.988	-38.1939	305.329	-127.183	2.43777	289.507	-142.705	-5.37702	273.554	-153.065	-11.4419	309.396	-131.296	28.0818	295.956	-144.554	27.1792	282.593	-156.798	22.1698	335.044	-103.571	18.3193	357.396	-91.074	34.8923	347.372	-78.6461	10.4255	
60	0.5	331.968	-47.4021	19.3678	304.709	-40.407	16.2447	284.586	-32.5023	8.43344	266.797	-24.3995	2.59964	297.955	-86.3662	-28.0205	278.435	-87.6441	-42.0618	261.741	-91.7581	-54.8611	300.842	-110.14	-15.9393	282.007	-121.804	-29.5684	257.325	-139.102	-37.3336	299.349	-127.287	2.87175	283.257	-137.903	-3.81216	264.668	-148.469	-10.8882	303.918	-129.875	31.5716	286.185	-142.123	25.7764	276.052	-154.647	29.4	334.789	-105.783	21.1079	355.055	-95.298	35.868	345.023	-81.449	9.62763	
61	0.508333	330.659	-49.9869	19.9847	307.944	-33.7115	19.8394	286.568	-26.5797	11.4734	270.903	-23.0103	6.7997	300.202	-80.2893	-24.1432	278.163	-86.059	-38.6284	262.768	-83.8922	-50.7037	297.248	-109.276	-11.6634	276.753	-118.321	-29.8956	254.706	-127.774	-38.3051	295.469	-120.371	2.0271	279.775	-131.219	-4.88889	260.334	-141.152	-10.6138	296.171	-129.284	28.1497	283.524	-137.35	30.3359	264.923	-152.661	27.0357	329.994	-105.82	22.21	351.577	-97.8238	36.803	344.655	-78.9471	11.0091	
